HIERARCHY
ROOT Hips
{
  OFFSET 46.1553 84.0003 33.9447
  CHANNELS 6 Xposition Yposition Zposition Zrotation Xrotation Yrotation
  JOINT spine
  {
    OFFSET 0 6.24479 0.359107
    CHANNELS 3 Zrotation Xrotation Yrotation
    JOINT spine1
    {
      OFFSET 0 9.06941 0
      CHANNELS 3 Zrotation Xrotation Yrotation
      JOINT spine2
      {
        OFFSET 0 8.69014 0
        CHANNELS 3 Zrotation Xrotation Yrotation
        JOINT Neck
        {
          OFFSET 0 22.3112 1.06372
          CHANNELS 3 Zrotation Xrotation Yrotation
          JOINT Head
          {
            OFFSET 0 6.74081 0
            CHANNELS 3 Zrotation Xrotation Yrotation
            End Site
            {
              OFFSET 0 16.3165 -5.38097
            }
          }
        }
        JOINT RightShoulder
        {
          OFFSET -3.65916 9.38468 -0.509514
          CHANNELS 3 Zrotation Xrotation Yrotation
          JOINT RightArm
          {
            OFFSET 0 12.3089 0
            CHANNELS 3 Zrotation Xrotation Yrotation
            JOINT RightArmRoll
            {
              OFFSET 0 6.21375 0
              CHANNELS 3 Zrotation Xrotation Yrotation
              JOINT RightForeArm
              {
                OFFSET 0 18.0985 0
                CHANNELS 3 Zrotation Xrotation Yrotation
                JOINT RightForeArmRoll
                {
                  OFFSET 0 6.97279 0
                  CHANNELS 3 Zrotation Xrotation Yrotation
                  JOINT RightHand
                  {
                    OFFSET 0 13.9929 0
                    CHANNELS 3 Zrotation Xrotation Yrotation
                    End Site
                    {
                      OFFSET 0 0 0
                    }
                  }
                }
              }
            }
          }
        }
        JOINT LeftShoulder
        {
          OFFSET 3.65916 9.38468 -0.509514
          CHANNELS 3 Zrotation Xrotation Yrotation
          JOINT LeftArm
          {
            OFFSET 0 12.3089 0
            CHANNELS 3 Zrotation Xrotation Yrotation
            JOINT LeftArmRoll
            {
              OFFSET 0 6.21375 0
              CHANNELS 3 Zrotation Xrotation Yrotation
              JOINT LeftForeArm
              {
                OFFSET 0 18.0985 0
                CHANNELS 3 Zrotation Xrotation Yrotation
                JOINT LeftForeArmRoll
                {
                  OFFSET 0 6.97279 0
                  CHANNELS 3 Zrotation Xrotation Yrotation
                  JOINT LeftHand
                  {
                    OFFSET 0 13.9929 0
                    CHANNELS 3 Zrotation Xrotation Yrotation
                    End Site
                    {
                      OFFSET 0 0 0
                    }
                  }
                }
              }
            }
          }
        }
      }
    }
  }
  JOINT RightUpLeg
  {
    OFFSET -5.53515 -1.015 -0.851454
    CHANNELS 3 Zrotation Xrotation Yrotation
    JOINT RightUpLegRoll
    {
      OFFSET 0 16.4075 0
      CHANNELS 3 Zrotation Xrotation Yrotation
      JOINT RightLeg
      {
        OFFSET 0 -20.3181 0
        CHANNELS 3 Zrotation Xrotation Yrotation
        JOINT RightLegRoll
        {
          OFFSET 0 20.3846 0
          CHANNELS 3 Zrotation Xrotation Yrotation
          JOINT RightFoot
          {
            OFFSET 0 16.9668 0
            CHANNELS 3 Zrotation Xrotation Yrotation
            JOINT RightToeBase
            {
              OFFSET 0 14.1834 0
              CHANNELS 3 Zrotation Xrotation Yrotation
              End Site
              {
                OFFSET 0.0060118 6.86889 -0.791746
              }
            }
          }
        }
      }
    }
  }
  JOINT LeftUpLeg
  {
    OFFSET 5.53515 -1.015 -0.851454
    CHANNELS 3 Zrotation Xrotation Yrotation
    JOINT LeftUpLegRoll
    {
      OFFSET 0 16.4076 0
      CHANNELS 3 Zrotation Xrotation Yrotation
      JOINT LeftLeg
      {
        OFFSET 0 20.3181 0
        CHANNELS 3 Zrotation Xrotation Yrotation
        JOINT LeftLegRoll
        {
          OFFSET 0 20.5731 0
          CHANNELS 3 Zrotation Xrotation Yrotation
          JOINT LeftFoot
          {
            OFFSET 0 16.7783 0
            CHANNELS 3 Zrotation Xrotation Yrotation
            JOINT LeftToeBase
            {
              OFFSET 0 14.1834 0
              CHANNELS 3 Zrotation Xrotation Yrotation
              End Site
              {
                OFFSET -0.0269423 6.86889 -0.791746
              }
            }
          }
        }
      }
    }
  }
}
MOTION
Frames: 8
Frame Time: 0.00208333
47.5803 48.8727 -5.7815 1.80148 -12.0527 0.528778 -0.201945 2.68984 0.033681 -0.426146 9.36906 0.0840361 -0.428548 11.0141 0.0914731 -8.01138 8.13099 0.869002 3.79998 6.4114 -1.29912 58.2253 -3.64713 -2.16341 127.118 37.3524 -30.0974 -8.89769e-007 7.19169e-007 -2.48659e-006 20.183 48.6176 -11.1271 -6.6319e-006 -4.38828e-006 -3.00001 8.02884 -4.95147 0.697713 -71.1836 -5.99359 4.29691 -108.943 42.6811 21.6819 -2.62396e-014 3.18055e-015 -7.95139e-015 -20.4101 45.3547 10.2883 5.45675e-006 -8.90233e-006 3 -8.02887 -4.95131 -0.697628 -158.424 75.9873 -23.151 -180 7.01593e-015 179.145 -165.088 77.4352 166.66 1.37764e-006 -5.90568e-006 0.997282 -12.0691 61.8611 15.9059 8.13673 25.2361 -3.47831 -177.258 77.1704 0.784367 4.57705e-006 1.05463e-005 -0.945677 32.1265 -82.3151 30.384 -4.18653e-007 -4.00229e-006 -0.972191 12.4029 64.2564 -17.1859 -8.12792 25.2331 3.48408 
47.5857 48.8786 -5.78158 1.78522 -12.027 0.524689 -0.202569 2.68851 0.032591 -0.426442 9.36737 0.0820454 -0.428826 11.0125 0.0894797 -7.98017 8.13241 0.882576 3.74827 6.40102 -1.27793 58.2502 -3.62585 -2.15204 127.09 37.3502 -30.0891 -8.89769e-007 7.19169e-007 -2.48659e-006 20.1873 48.6467 -11.1375 -6.6319e-006 -4.38828e-006 -3.00001 8.02884 -4.95147 0.697713 -71.1176 -6.0269 4.31035 -109.029 42.6708 21.7304 -1.11319e-014 0 -3.18055e-015 -20.4018 45.3626 10.2868 5.45675e-006 -8.90233e-006 3 -8.02887 -4.95131 -0.697628 -158.348 76.0045 -23.2219 -180 7.01593e-015 179.145 -165.122 77.4345 166.69 1.37764e-006 -5.90568e-006 0.997315 -12.0683 61.8663 15.9102 8.13673 25.2361 -3.47831 -177.222 77.1984 0.760017 4.57705e-006 1.05463e-005 -0.945677 32.1531 -82.3137 30.4069 -4.18653e-007 -4.00229e-006 -0.974231 12.4128 64.2611 -17.1877 -8.12792 25.2331 3.48408 
47.5819 48.8716 -5.77732 1.76847 -12.0011 0.520264 -0.203247 2.68704 0.0314085 -0.426829 9.36545 0.0798437 -0.429192 11.0105 0.0872758 -7.94738 8.13451 0.89644 3.69543 6.39009 -1.25605 58.277 -3.60327 -2.14004 127.061 37.3481 -30.08 -8.89769e-007 7.19169e-007 -2.48659e-006 20.1917 48.6758 -11.1481 -6.6319e-006 -4.38828e-006 -3.00001 8.02884 -4.95147 0.697713 -71.0501 -6.06206 4.32464 -109.117 42.6601 21.7803 -1.27222e-014 1.27222e-014 -4.77083e-015 -20.3933 45.3704 10.2852 5.45675e-006 -8.90233e-006 3 -8.02887 -4.95131 -0.697628 -158.269 76.0218 -23.295 -180 7.01593e-015 179.145 -165.156 77.4341 166.72 1.37764e-006 -5.90568e-006 0.997364 -12.0677 61.8718 15.9146 8.13673 25.2361 -3.47831 -177.184 77.2269 0.73344 4.57705e-006 1.05463e-005 -0.945677 32.183 -82.3127 30.4331 -4.18653e-007 -4.00229e-006 -0.976335 12.4232 64.2659 -17.1897 -8.12792 25.2331 3.48408 
47.5796 48.8804 -5.77429 1.75138 -11.9751 0.515603 -0.203964 2.68548 0.0301612 -0.427278 9.36336 0.0774942 -0.42962 11.0084 0.0849247 -7.91346 8.13708 0.910507 3.6418 6.37878 -1.23369 58.3052 -3.5798 -2.12758 127.029 37.346 -30.0703 -8.89769e-007 7.19169e-007 -2.48659e-006 20.1964 48.7049 -11.1587 -6.6319e-006 -4.38828e-006 -3.00001 8.02884 -4.95147 0.697713 -70.9814 -6.09851 4.33952 -109.207 42.6491 21.8312 -6.36111e-015 3.18055e-015 1.59028e-015 -20.3849 45.3781 10.2836 5.45675e-006 -8.90233e-006 3 -8.02887 -4.95131 -0.697628 -158.189 76.0391 -23.3695 -180 7.01593e-015 179.145 -165.191 77.4338 166.75 1.37764e-006 -5.90568e-006 0.997425 -12.0671 61.8776 15.9191 8.13673 25.2361 -3.47831 -177.144 77.2556 0.705256 4.57705e-006 1.05463e-005 -0.945677 32.2153 -82.3121 30.4614 -4.18653e-007 -4.00229e-006 -0.978484 12.4339 64.2708 -17.1916 -8.12792 25.2331 3.48408 
47.5812 48.8906 -5.78419 1.73409 -11.9491 0.510809 -0.204703 2.68386 0.0288769 -0.427763 9.36117 0.0750603 -0.430083 11.0063 0.0824895 -7.87891 8.13993 0.92469 3.58772 6.36726 -1.21106 58.3342 -3.55581 -2.11487 126.998 37.3441 -30.0602 -8.89769e-007 7.19169e-007 -2.48659e-006 20.2011 48.7339 -11.1693 -6.6319e-006 -4.38828e-006 -3.00001 8.02884 -4.95147 0.697713 -70.9122 -6.13569 4.35474 -109.297 42.6379 21.8825 5.56597e-015 -6.36111e-015 7.95139e-015 -20.3764 45.3858 10.282 5.45675e-006 -8.90233e-006 3 -8.02887 -4.95131 -0.697628 -158.107 76.0564 -23.445 -180 7.01593e-015 179.146 -165.226 77.4337 166.78 1.37764e-006 -5.90568e-006 0.997492 -12.0666 61.8834 15.9238 8.13673 25.2361 -3.47831 -177.103 77.2845 0.676093 4.57705e-006 1.05463e-005 -0.945677 32.2489 -82.3117 30.4911 -4.18653e-007 -4.00229e-006 -0.98066 12.4448 64.2757 -17.1935 -8.12792 25.2331 3.48408 
47.5835 48.893 -5.78118 1.71676 -11.9231 0.505981 -0.205448 2.68223 0.0275833 -0.428257 9.35896 0.0726053 -0.430555 11.004 0.0800333 -7.8442 8.14285 0.938903 3.53353 6.35569 -1.18836 58.3634 -3.53169 -2.10209 126.966 37.3421 -30.05 -8.89769e-007 7.19169e-007 -2.48659e-006 20.2059 48.763 -11.18 -6.6319e-006 -4.38828e-006 -3.00001 8.02884 -4.95147 0.697713 -70.8427 -6.17305 4.37005 -109.388 42.6266 21.934 2.38542e-015 6.36111e-015 9.54166e-015 -20.3678 45.3934 10.2803 5.45675e-006 -8.90233e-006 3 -8.02887 -4.95131 -0.697628 -158.025 76.0738 -23.5209 -180 7.01593e-015 179.146 -165.262 77.4336 166.811 1.37764e-006 -5.90568e-006 0.997561 -12.0661 61.8893 15.9284 8.13673 25.2361 -3.47831 -177.061 77.3134 0.646586 4.57705e-006 1.05463e-005 -0.945677 32.2829 -82.3113 30.5211 -4.18653e-007 -4.00229e-006 -0.982841 12.4557 64.2806 -17.1955 -8.12792 25.2331 3.48408 
47.5826 48.8949 -5.78105 1.69953 -11.8971 0.501223 -0.206182 2.68062 0.0263082 -0.428733 9.3568 0.0701926 -0.43101 11.0019 0.0776192 -7.80981 8.14563 0.953057 3.47958 6.34422 -1.1658 58.3922 -3.50783 -2.08945 126.934 37.3401 -30.04 -8.89769e-007 7.19169e-007 -2.48659e-006 20.2106 48.792 -11.1907 -6.6319e-006 -4.38828e-006 -3.00001 8.02884 -4.95147 0.697713 -70.7736 -6.21004 4.3852 -109.478 42.6154 21.9852 -7.15625e-015 9.54166e-015 1.59028e-015 -20.3593 45.4011 10.2786 5.45675e-006 -8.90233e-006 3 -8.02887 -4.95131 -0.697628 -157.944 76.0911 -23.5966 -180 7.01593e-015 179.146 -165.297 77.4334 166.841 1.37764e-006 -5.90568e-006 0.997626 -12.0656 61.8951 15.9331 8.13673 25.2361 -3.47831 -177.02 77.3423 0.617375 4.57705e-006 1.05463e-005 -0.945677 32.3162 -82.3108 30.5504 -4.18653e-007 -4.00229e-006 -0.98501 12.4666 64.2856 -17.1975 -8.12792 25.2331 3.48408 
47.5763 48.8988 -5.78489 1.68256 -11.8712 0.496633 -0.206888 2.67909 0.0250795 -0.429165 9.35476 0.0678855 -0.431421 10.9998 0.0753103 -7.77622 8.14807 0.967067 3.42622 6.33301 -1.14359 58.42 -3.48461 -2.07713 126.903 37.338 -30.0304 -8.89769e-007 7.19169e-007 -2.48659e-006 20.2153 48.8211 -11.2014 -6.6319e-006 -4.38828e-006 -3.00001 8.02884 -4.95147 0.697713 -70.7052 -6.24611 4.39992 -109.567 42.6043 22.0356 -5.56597e-015 3.18055e-015 -0 -20.3509 45.4089 10.277 5.45675e-006 -8.90233e-006 3 -8.02887 -4.95131 -0.697628 -157.863 76.1083 -23.6714 -180 7.01593e-015 179.146 -165.332 77.4331 166.871 1.37764e-006 -5.90568e-006 0.997683 -12.065 61.9008 15.9376 8.13673 25.2361 -3.47831 -176.98 77.3709 0.58911 4.57705e-006 1.05463e-005 -0.945677 32.3478 -82.3101 30.5781 -4.18653e-007 -4.00229e-006 -0.987147 12.4772 64.2904 -17.1994 -8.12792 25.2331 3.48408 
